Coordinates
version=1
nRows=31
nColumns=38
inDegrees=no

Units are S.I. units (second, meters, Newtons, ...)
If the header above contains a line with 'inDegrees', this indicates whether rotational values are in degrees (yes) or radians (no).

endheader
time	pelvis_tilt	pelvis_list	pelvis_rotation	pelvis_tx	pelvis_ty	pelvis_tz	hip_flexion_r	hip_adduction_r	hip_rotation_r	knee_angle_r	ankle_angle_r	subtalar_angle_r	mtp_angle_r	hip_flexion_l	hip_adduction_l	hip_rotation_l	knee_angle_l	ankle_angle_l	subtalar_angle_l	mtp_angle_l	lumbar_extension	lumbar_bending	lumbar_rotation	arm_flex_r	arm_add_r	arm_rot_r	elbow_flex_r	pro_sup_r	wrist_flex_r	wrist_dev_r	arm_flex_l	arm_add_l	arm_rot_l	elbow_flex_l	pro_sup_l	wrist_flex_l	wrist_dev_l
30	-1.48339	1.49377	3.04784	0.640301	0.500107	0.781742	0.782101	-0.206538	0.0544251	1.49875	0.523599	0	0	0.751612	0.0350535	-0.146762	1.49573	0.523599	0	0	-0.503598	0.0786481	0.15229	0.264038	-0.350924	0.131467	0.291778	1.09935	0	0	-0.00393145	-0.234086	0.447783	0.826255	1.04733	0	0
30.01	-1.48754	1.49364	3.05256	0.640373	0.500148	0.781508	0.78208	-0.206547	0.0545329	1.4998	0.523599	0	0	0.751691	0.0351152	-0.146802	1.49639	0.523599	0	0	-0.50459	0.0780282	0.150424	0.264123	-0.349642	0.133158	0.29157	1.10001	0	0	-0.00450548	-0.233484	0.444835	0.825368	1.04675	0	0
30.02	-1.48904	1.49378	3.0549	0.640417	0.500212	0.781308	0.78213	-0.206655	0.0541394	1.50082	0.523599	0	0	0.751925	0.0352075	-0.146271	1.49717	0.523599	0	0	-0.505349	0.0778055	0.14854	0.263635	-0.348444	0.134346	0.292295	1.10027	0	0	-0.00486226	-0.232705	0.442307	0.823499	1.04604	0	0
30.03	-1.48712	1.49408	3.05383	0.640447	0.50027	0.781124	0.782362	-0.206638	0.0535799	1.5017	0.523599	0	0	0.752374	0.035242	-0.145546	1.4978	0.523599	0	0	-0.505849	0.0777513	0.146799	0.262786	-0.347472	0.134904	0.294121	1.10046	0	0	-0.00500991	-0.231839	0.440348	0.821196	1.0453	0	0
30.04	-1.48549	1.49453	3.05303	0.640465	0.500313	0.780968	0.782418	-0.206453	0.052903	1.50227	0.523599	0	0	0.752784	0.0351906	-0.14464	1.49843	0.523599	0	0	-0.506405	0.0778061	0.145191	0.261995	-0.34659	0.134743	0.296507	1.10093	0	0	-0.00507341	-0.231071	0.438889	0.819117	1.04464	0	0
30.05	-1.4861	1.49508	3.0544	0.640475	0.500327	0.780859	0.782184	-0.206234	0.0520923	1.50259	0.523599	0	0	0.75295	0.0350605	-0.143644	1.49893	0.523599	0	0	-0.507251	0.0779637	0.143881	0.261198	-0.34564	0.13239	0.29946	1.10248	0	0	-0.00483839	-0.23033	0.437859	0.817069	1.04397	0	0
30.06	-1.4854	1.49557	3.05428	0.640483	0.500339	0.780784	0.782042	-0.206225	0.0513508	1.50286	0.523599	0	0	0.753171	0.0349234	-0.142847	1.4993	0.523599	0	0	-0.5083	0.0779786	0.143693	0.26062	-0.342986	0.111205	0.30112	1.12484	0	0	-0.00373594	-0.229533	0.437989	0.814565	1.04511	0	0
30.07	-1.48683	1.49632	3.05616	0.64048	0.500331	0.780755	0.781678	-0.205871	0.050587	1.50298	0.523599	0	0	0.753244	0.0345734	-0.141961	1.49966	0.523599	0	0	-0.509724	0.0784586	0.143209	0.260322	-0.342271	0.107847	0.304037	1.12393	0	0	-0.00307675	-0.228705	0.437647	0.812588	1.04562	0	0
30.08	-1.4883	1.49709	3.05799	0.640476	0.500314	0.780737	0.781399	-0.205378	0.049814	1.50307	0.523599	0	0	0.753323	0.0341442	-0.141062	1.50005	0.523599	0	0	-0.511343	0.0790308	0.142697	0.261091	-0.341715	0.10715	0.305443	1.12218	0	0	-0.00269129	-0.228095	0.437425	0.811915	1.04536	0	0
30.09	-1.49034	1.49787	3.06041	0.640461	0.500278	0.780716	0.781125	-0.204896	0.0490053	1.50313	0.523599	0	0	0.753377	0.0337436	-0.140146	1.50046	0.523599	0	0	-0.513077	0.0796408	0.14243	0.262445	-0.341368	0.108093	0.30565	1.11934	0	0	-0.00223159	-0.227678	0.437794	0.812101	1.04459	0	0
30.1	-1.49217	1.49868	3.06263	0.640442	0.500225	0.780688	0.780729	-0.204449	0.0482481	1.50309	0.523599	0	0	0.753519	0.0333873	-0.139244	1.50084	0.523599	0	0	-0.514746	0.0803434	0.142479	0.264192	-0.34129	0.110551	0.30469	1.11569	0	0	-0.00160931	-0.227285	0.438638	0.812611	1.04415	0	0
30.11	-1.4905	1.49946	3.0614	0.640409	0.500168	0.780638	0.780596	-0.203941	0.047548	1.50306	0.523599	0	0	0.754015	0.0330498	-0.138351	1.5013	0.523599	0	0	-0.516192	0.0811249	0.142839	0.266481	-0.340052	0.103116	0.301735	1.12577	0	0	-0.000787708	-0.226881	0.439807	0.812923	1.04409	0	0
30.12	-1.48782	1.50025	3.0593	0.640359	0.500113	0.780576	0.780649	-0.203629	0.0466399	1.50319	0.523599	0	0	0.75456	0.0327915	-0.137458	1.50169	0.523599	0	0	-0.517549	0.0820407	0.142911	0.269136	-0.339624	0.103625	0.29814	1.12611	0	0	-0.000266886	-0.226511	0.440556	0.8135	1.04412	0	0
30.13	-1.4804	1.50071	3.05257	0.64029	0.500069	0.780474	0.781177	-0.203491	0.0460652	1.50348	0.523599	0	0	0.755482	0.0328269	-0.136685	1.50212	0.523599	0	0	-0.518476	0.0826612	0.143096	0.271484	-0.339728	0.106426	0.294553	1.12485	0	0	0.000250883	-0.226214	0.441184	0.814222	1.04494	0	0
30.14	-1.47078	1.50094	3.04371	0.640212	0.50003	0.780343	0.781958	-0.203301	0.0458604	1.50386	0.523599	0	0	0.756584	0.0331199	-0.135897	1.50258	0.523599	0	0	-0.519156	0.0829921	0.143342	0.273393	-0.340083	0.110278	0.291451	1.12209	0	0	0.00069774	-0.226028	0.441489	0.815289	1.04629	0	0
30.15	-1.46308	1.50109	3.03683	0.640135	0.49999	0.780222	0.782579	-0.203146	0.045793	1.50413	0.523599	0	0	0.757528	0.0334765	-0.135052	1.5031	0.523599	0	0	-0.519929	0.0831906	0.143589	0.274852	-0.340394	0.113406	0.289109	1.11825	0	0	0.00107563	-0.225908	0.441375	0.816676	1.04788	0	0
30.16	-1.45764	1.50118	3.03237	0.640044	0.499968	0.780127	0.783052	-0.203134	0.0457243	1.50439	0.523599	0	0	0.758222	0.0339029	-0.134364	1.50346	0.523599	0	0	-0.520779	0.0833296	0.143643	0.275975	-0.340755	0.116211	0.287476	1.11428	0	0	0.00119665	-0.225759	0.440614	0.818168	1.04958	0	0
30.17	-1.45442	1.50134	3.03032	0.639936	0.499959	0.780066	0.783143	-0.20308	0.0455219	1.50468	0.523599	0	0	0.758653	0.0342735	-0.133795	1.50363	0.523599	0	0	-0.521755	0.0835653	0.143568	0.276679	-0.34133	0.119234	0.286657	1.11054	0	0	0.00114671	-0.225477	0.439208	0.819705	1.05128	0	0
30.18	-1.45216	1.50158	3.02941	0.639801	0.499952	0.780021	0.783036	-0.202935	0.0452327	1.50489	0.523599	0	0	0.758994	0.0346697	-0.133065	1.50375	0.523599	0	0	-0.522691	0.0839884	0.143518	0.276864	-0.341984	0.121395	0.286579	1.10762	0	0	0.00116322	-0.225009	0.437636	0.821021	1.05253	0	0
30.19	-1.44782	1.50192	3.02669	0.639633	0.499957	0.779968	0.782875	-0.202878	0.0447316	1.50503	0.523599	0	0	0.759587	0.0350717	-0.131912	1.50413	0.523599	0	0	-0.523366	0.084711	0.143058	0.276939	-0.342565	0.123235	0.286945	1.1056	0	0	0.000844252	-0.224299	0.435249	0.822195	1.05348	0	0
30.2	-1.44354	1.50229	3.02432	0.639443	0.499984	0.779925	0.782562	-0.203053	0.043972	1.50513	0.523599	0	0	0.760131	0.0355384	-0.130756	1.50437	0.523599	0	0	-0.52383	0.0855892	0.142184	0.276945	-0.343019	0.124922	0.287613	1.10396	0	0	0.000276982	-0.22366	0.432535	0.823209	1.05442	0	0
30.21	-1.44134	1.50263	3.02431	0.639231	0.500015	0.77992	0.781962	-0.203406	0.0431165	1.50512	0.523599	0	0	0.760407	0.0361586	-0.129637	1.5044	0.523599	0	0	-0.524274	0.0865685	0.140868	0.277055	-0.343193	0.125908	0.28845	1.1032	0	0	-0.000334834	-0.22325	0.43014	0.824042	1.05496	0	0
30.22	-1.44026	1.50302	3.0256	0.639006	0.500055	0.779951	0.781148	-0.203826	0.0421171	1.50503	0.523599	0	0	0.760486	0.036852	-0.128398	1.5043	0.523599	0	0	-0.524666	0.0876506	0.139108	0.277386	-0.343048	0.126607	0.289348	1.10304	0	0	-0.00111483	-0.222886	0.4277	0.824768	1.0552	0	0
30.23	-1.44386	1.50368	3.03155	0.638747	0.500085	0.780035	0.779827	-0.204065	0.0409228	1.50484	0.523599	0	0	0.760128	0.0373503	-0.126984	1.50422	0.523599	0	0	-0.525066	0.0891706	0.135875	0.276482	-0.347545	0.171883	0.296298	1.04092	0	0	-0.00318662	-0.222422	0.423472	0.826132	1.05277	0	0
30.24	-1.44085	1.50381	3.03045	0.638558	0.500185	0.780148	0.77899	-0.204308	0.0403423	1.50457	0.523599	0	0	0.759988	0.0377062	-0.126398	1.50371	0.523599	0	0	-0.525206	0.0894669	0.13487	0.279027	-0.341995	0.126808	0.290721	1.10455	0	0	-0.00343175	-0.221823	0.421061	0.825436	1.05802	0	0
30.25	-1.44284	1.50402	3.03434	0.638357	0.50028	0.780311	0.777629	-0.204512	0.0397258	1.50387	0.523599	0	0	0.759417	0.0379548	-0.125815	1.50302	0.523599	0	0	-0.525315	0.0899245	0.13263	0.279753	-0.340934	0.125147	0.291454	1.1043	0	0	-0.00451389	-0.221679	0.418815	0.825384	1.05803	0	0
30.26	-1.44286	1.50408	3.03613	0.6382	0.500414	0.780525	0.776289	-0.204695	0.0392206	1.50273	0.523599	0	0	0.758805	0.0382028	-0.125295	1.50213	0.523599	0	0	-0.524996	0.0900506	0.130363	0.280331	-0.339945	0.125544	0.291989	1.10294	0	0	-0.00548773	-0.221743	0.417367	0.824696	1.0577	0	0
30.27	-1.44043	1.50394	3.0353	0.638097	0.500579	0.780821	0.77499	-0.20495	0.0388049	1.5013	0.523599	0	0	0.758213	0.0385275	-0.124948	1.50098	0.523599	0	0	-0.524178	0.0897392	0.128027	0.280883	-0.339135	0.128861	0.292167	1.10109	0	0	-0.00636171	-0.221954	0.416495	0.823331	1.05649	0	0
30.28	-1.43905	1.50361	3.03525	0.638009	0.500743	0.781238	0.773565	-0.20536	0.0384923	1.49965	0.523599	0	0	0.757362	0.0388916	-0.124926	1.49941	0.523599	0	0	-0.523185	0.0890013	0.125751	0.281456	-0.338232	0.132876	0.291841	1.09907	0	0	-0.00698701	-0.222144	0.41595	0.821653	1.05481	0	0
30.29	-1.43813	1.50337	3.03526	0.637923	0.500897	0.781772	0.772108	-0.20558	0.0382422	1.49785	0.523599	0	0	0.756274	0.0390453	-0.125042	1.49753	0.523599	0	0	-0.522158	0.0882071	0.12343	0.281927	-0.337808	0.141968	0.292348	1.08686	0	0	-0.00774152	-0.221984	0.414552	0.819766	1.0558	0	0
30.3	-1.43559	1.50323	3.03343	0.637852	0.501076	0.782437	0.770622	-0.205628	0.0380103	1.4956	0.523599	0	0	0.754946	0.0390369	-0.125169	1.49518	0.523599	0	0	-0.520952	0.0873811	0.121645	0.283037	-0.336488	0.141494	0.290535	1.09014	0	0	-0.0079457	-0.221709	0.414475	0.816403	1.05471	0	0
